<svg width="122" height="62" viewBox="0 0 122 62" fill="none" xmlns="http://www.w3.org/2000/svg">
<g filter="url(#filter0_d_7_361)">
<path d="M111.289 18.0327L111.285 18.034L111.284 18.0327L100.667 22.7026H79.4361L68.8178 18.0327L79.4361 13.3622H100.671L111.289 18.0327Z" fill="#40C6F3"/>
<path d="M111.285 18.034L100.671 22.7025H100.667L111.284 18.0327L111.285 18.034Z" fill="#40C6F3"/>
<path d="M104.798 29.9722L90.0518 53.4292L75.3047 29.9722H104.798Z" fill="#40C6F3"/>
<path d="M104.802 29.9722L90.0629 53.4182L90.0616 53.4189L90.0532 53.4325L90.0525 53.4299L90.0519 53.4292L104.798 29.9722H104.802Z" fill="#40C6F3"/>
<path d="M79.4361 22.7025L75.3048 29.9722L62.85 23.5998L68.8178 18.0327L79.4361 22.7025Z" fill="#40C6F3"/>
<path d="M90.0519 53.4293L90.0512 53.4299L62.85 23.5999L75.3048 29.9722L90.0519 53.4293Z" fill="#40C6F3"/>
<path d="M90.0552 53.4361L90.0525 53.432L90.0511 53.4307L90.0525 53.4293L90.0538 53.4307L90.0552 53.4361Z" fill="#40C6F3"/>
<path d="M104.798 29.9722H75.3047L79.436 22.7026H100.667L104.798 29.9722Z" fill="#40C6F3"/>
<path d="M117.253 23.5999L104.798 29.9723L100.667 22.7026H100.671L111.285 18.034L117.253 23.5999Z" fill="#40C6F3"/>
<path d="M100.671 22.7025H100.667L111.284 18.0327L111.285 18.034L100.671 22.7025Z" fill="#40C6F3"/>
<path d="M90.0629 53.4183L104.802 29.9722H104.798L117.253 23.5999L90.0629 53.4183Z" fill="#40C6F3"/>
<path d="M104.802 29.9722L90.0629 53.4182L90.0616 53.4189L90.0525 53.4299L90.0493 53.4325L90.0512 53.4299L90.0518 53.4292L104.798 29.9722H104.802Z" fill="#40C6F3"/>
<path d="M79.5009 22.8322L74.6085 26.4667L63.6175 23.7288L75.6036 29.6902L79.5009 22.8322Z" fill="#41B9EA"/>
<path d="M63.8969 24.7474L74.1418 32.1318L87.853 49.9316L75.3048 29.9716L63.8969 24.7474Z" fill="#41B9EA"/>
<path d="M79.4362 22.947L100.189 25.4566L75.5389 29.5605L104.556 29.7732L100.667 22.7026L79.4362 22.947Z" fill="#41B9EA"/>
<path d="M75.5473 29.9716L100.239 32.1318L90.0474 52.661L104.556 29.9722L75.5473 29.9716Z" fill="#41B9EA"/>
<path d="M100.667 22.7026L111.832 21.1901L116.291 22.7026L111.285 18.0321L100.667 22.7026Z" fill="#41B9EA"/>
<path d="M105.308 29.9723L109.374 29.9716L93.3139 49.3987L116.465 24.0032L105.308 29.9723Z" fill="#41B9EA"/>
<path d="M79.4361 13.3622L102.197 16.773L100.667 22.7026L111.285 18.032L100.671 13.3622H79.4361Z" fill="#41B9EA"/>
<path d="M96.8986 18.5339L97.0412 18.919L97.4263 19.061L97.0412 19.2036L96.8986 19.5887L96.756 19.2036L96.3716 19.061L96.756 18.919L96.8986 18.5339Z" fill="white"/>
<path d="M99.7335 17.326L99.8762 17.7111L100.261 17.8531L99.8762 17.9957L99.7335 18.3808L99.5909 17.9957L99.2065 17.8531L99.5909 17.7111L99.7335 17.326Z" fill="white"/>
<path d="M99.7335 19.0609L99.8762 19.446L100.261 19.5887L99.8762 19.7313L99.7335 20.1158L99.5909 19.7313L99.2065 19.5887L99.5909 19.446L99.7335 19.0609Z" fill="white"/>
<path d="M109.487 24.8284L109.63 25.2135L110.014 25.3561L109.63 25.4981L109.487 25.8832L109.344 25.4981L108.959 25.3561L109.344 25.2135L109.487 24.8284Z" fill="white"/>
<path d="M108.161 23.8605L108.199 23.9642L108.303 24.0031L108.199 24.0414L108.161 24.1451L108.122 24.0414L108.018 24.0031L108.122 23.9642L108.161 23.8605Z" fill="white"/>
<path opacity="0.8" d="M65.4261 24.7474L67.9024 21.6588L65.7645 24.7967L65.4261 24.9173" fill="white"/>
<path opacity="0.8" d="M66.2539 25.1857L68.7295 22.0971L66.5916 25.235L66.2539 25.3562" fill="white"/>
<path opacity="0.8" d="M79.4361 13.6112L72.3351 17.8272L79.4361 22.3947L69.324 18.0029L79.4361 13.6112Z" fill="white"/>
<path opacity="0.8" d="M68.948 18.3853L64.0265 23.7262L63.13 23.2543L68.948 18.3853Z" fill="white"/>
<path opacity="0.8" d="M75.8747 30.2919L89.0141 51.0383L76.6759 30.0702L75.8747 30.2919Z" fill="white"/>
<path opacity="0.8" d="M80.382 29.6903L84.698 24.7474L81.5196 29.9716L80.382 29.6903Z" fill="white"/>
<path opacity="0.8" d="M82.5399 30.0915L86.856 25.1487L83.6776 30.3729L82.5399 30.0915Z" fill="white"/>
<path d="M79.678 22.9761L76.451 29.7732L75.5389 29.5605L79.678 22.9761Z" fill="white"/>
<path d="M101.059 22.7026L105.141 29.6902L105.976 29.0873L101.059 22.7026Z" fill="white"/>
<path d="M105.041 30.0702H105.844L93.6983 48.495L105.041 30.0702Z" fill="white"/>
<path d="M52.4392 18.0327L52.4353 18.034L52.434 18.0327L41.817 22.7026H20.5861L9.96779 18.0327L20.5861 13.3622H41.8209L52.4392 18.0327Z" fill="#40C6F3"/>
<path d="M52.4352 18.034L41.8208 22.7025H41.8169L52.434 18.0327L52.4352 18.034Z" fill="#40C6F3"/>
<path d="M45.9482 29.9722L31.2018 53.4292L16.4547 29.9722H45.9482Z" fill="#40C6F3"/>
<path d="M45.9522 29.9722L31.2129 53.4182L31.2116 53.4189L31.2032 53.4325L31.2025 53.4299L31.2019 53.4292L45.9483 29.9722H45.9522Z" fill="#40C6F3"/>
<path d="M20.5861 22.7025L16.4548 29.9722L4 23.5998L9.96779 18.0327L20.5861 22.7025Z" fill="#40C6F3"/>
<path d="M31.2019 53.4293L31.2012 53.4299L4 23.5999L16.4548 29.9722L31.2019 53.4293Z" fill="#40C6F3"/>
<path d="M31.2052 53.4361L31.2025 53.432L31.2011 53.4307L31.2025 53.4293L31.2038 53.4307L31.2052 53.4361Z" fill="#40C6F3"/>
<path d="M45.9482 29.9722H16.4547L20.586 22.7026H41.8169L45.9482 29.9722Z" fill="#40C6F3"/>
<path d="M58.403 23.5999L45.9482 29.9723L41.8169 22.7026H41.8208L52.4352 18.034L58.403 23.5999Z" fill="#40C6F3"/>
<path d="M41.8208 22.7025H41.8169L52.434 18.0327L52.4352 18.034L41.8208 22.7025Z" fill="#40C6F3"/>
<path d="M31.2129 53.4183L45.9521 29.9722H45.9482L58.4031 23.5999L31.2129 53.4183Z" fill="#40C6F3"/>
<path d="M45.9521 29.9722L31.2129 53.4182L31.2116 53.4189L31.2025 53.4299L31.1993 53.4325L31.2012 53.4299L31.2018 53.4292L45.9482 29.9722H45.9521Z" fill="#40C6F3"/>
<path d="M20.6509 22.8322L15.7585 26.4667L4.76746 23.7288L16.7536 29.6902L20.6509 22.8322Z" fill="#41B9EA"/>
<path d="M5.04686 24.7474L15.2918 32.1318L29.0029 49.9316L16.4548 29.9716L5.04686 24.7474Z" fill="#41B9EA"/>
<path d="M20.5862 22.947L41.3392 25.4566L16.6889 29.5605L45.7059 29.7732L41.817 22.7026L20.5862 22.947Z" fill="#41B9EA"/>
<path d="M16.6973 29.9716L41.3892 32.1318L31.1974 52.661L45.7059 29.9722L16.6973 29.9716Z" fill="#41B9EA"/>
<path d="M41.8169 22.7026L52.9824 21.1901L57.441 22.7026L52.4346 18.0321L41.8169 22.7026Z" fill="#41B9EA"/>
<path d="M46.4584 29.9723L50.5236 29.9716L34.4639 49.3987L57.6148 24.0032L46.4584 29.9723Z" fill="#41B9EA"/>
<path d="M20.5861 13.3622L43.3468 16.773L41.817 22.7026L52.4346 18.032L41.8208 13.3622H20.5861Z" fill="#41B9EA"/>
<path d="M38.0486 18.5339L38.1912 18.919L38.5763 19.061L38.1912 19.2036L38.0486 19.5887L37.906 19.2036L37.5216 19.061L37.906 18.919L38.0486 18.5339Z" fill="white"/>
<path d="M40.8835 17.326L41.0261 17.7111L41.4106 17.8531L41.0261 17.9957L40.8835 18.3808L40.7409 17.9957L40.3565 17.8531L40.7409 17.7111L40.8835 17.326Z" fill="white"/>
<path d="M40.8835 19.0609L41.0261 19.446L41.4106 19.5887L41.0261 19.7313L40.8835 20.1158L40.7409 19.7313L40.3565 19.5887L40.7409 19.446L40.8835 19.0609Z" fill="white"/>
<path d="M50.637 24.8284L50.7797 25.2135L51.1641 25.3561L50.7797 25.4981L50.637 25.8832L50.4944 25.4981L50.1094 25.3561L50.4944 25.2135L50.637 24.8284Z" fill="white"/>
<path d="M49.3107 23.8605L49.349 23.9642L49.4533 24.0031L49.349 24.0414L49.3107 24.1451L49.2725 24.0414L49.1681 24.0031L49.2725 23.9642L49.3107 23.8605Z" fill="white"/>
<path opacity="0.8" d="M6.57612 24.7474L9.05243 21.6588L6.9145 24.7967L6.57612 24.9173" fill="white"/>
<path opacity="0.8" d="M7.40387 25.1857L9.87954 22.0971L7.74161 25.235L7.40387 25.3562" fill="white"/>
<path opacity="0.8" d="M20.5861 13.6112L13.4851 17.8272L20.5861 22.3947L10.474 18.0029L20.5861 13.6112Z" fill="white"/>
<path opacity="0.8" d="M10.098 18.3853L5.17651 23.7262L4.27998 23.2543L10.098 18.3853Z" fill="white"/>
<path opacity="0.8" d="M17.0247 30.2919L30.1641 51.0383L17.8259 30.0702L17.0247 30.2919Z" fill="white"/>
<path opacity="0.8" d="M21.5319 29.6903L25.848 24.7474L22.6696 29.9716L21.5319 29.6903Z" fill="white"/>
<path opacity="0.8" d="M23.6899 30.0915L28.006 25.1487L24.8276 30.3729L23.6899 30.0915Z" fill="white"/>
<path d="M20.828 22.9761L17.601 29.7732L16.6889 29.5605L20.828 22.9761Z" fill="white"/>
<path d="M42.2092 22.7026L46.2912 29.6902L47.1262 29.0873L42.2092 22.7026Z" fill="white"/>
<path d="M46.1907 30.0702H46.9939L34.8483 48.495L46.1907 30.0702Z" fill="white"/>
<path d="M79.2676 4.57889L79.2644 4.58016L79.2631 4.57889L68.8352 9.15715H47.9838L37.5559 4.57889L47.9838 0H68.8397L79.2676 4.57889Z" fill="#FFE42F"/>
<path d="M79.2644 4.58017L68.8397 9.15716H68.8352L79.2632 4.5789L79.2644 4.58017Z" fill="#40C6F3"/>
<path d="M72.8927 16.2842L58.4099 39.281L43.9264 16.2842H72.8927Z" fill="#FFE42F"/>
<path d="M72.8972 16.2842L58.4207 39.2702L58.4201 39.2708L58.4118 39.2842L58.4105 39.2816L58.4099 39.281L72.8927 16.2842H72.8972Z" fill="#40C6F3"/>
<path d="M47.9838 9.15716L43.9263 16.2842L31.6941 10.0368L37.5559 4.5789L47.9838 9.15716Z" fill="#FFE42F"/>
<path d="M58.4098 39.281L58.4092 39.2816L31.6941 10.0368L43.9263 16.2842L58.4098 39.281Z" fill="#FFE42F"/>
<path d="M58.4118 39.2841L58.4099 39.2822L58.4092 39.2816L58.4099 39.281L58.4105 39.2816L58.4118 39.2841Z" fill="#40C6F3"/>
<path d="M72.8927 16.2841H43.9264L47.9839 9.15712H68.8352L72.8927 16.2841Z" fill="#FFE42F"/>
<path d="M85.1249 10.0368L72.8927 16.2842L68.8352 9.15716H68.8397L79.2644 4.58017L85.1249 10.0368Z" fill="#FFE42F"/>
<path d="M68.8397 9.15716H68.8352L79.2632 4.5789L79.2644 4.58017L68.8397 9.15716Z" fill="#40C6F3"/>
<path d="M58.4207 39.2702L72.8971 16.2842H72.8927L85.1249 10.0368L58.4207 39.2702Z" fill="#FFE42F"/>
<path d="M72.8972 16.2842L58.4207 39.2702L58.4201 39.2708L58.4105 39.2816L58.408 39.2842L58.4093 39.2816L58.4099 39.281L72.8927 16.2842H72.8972Z" fill="#40C6F3"/>
<path d="M48.0475 9.28427L43.2426 12.8475L32.448 10.1633L44.2199 16.0077L48.0475 9.28427Z" fill="#FFA428"/>
<path d="M32.7224 11.1618L42.7849 18.4014L56.2503 35.8519L43.9264 16.2835L32.7224 11.1618Z" fill="#FFA428"/>
<path d="M47.9838 9.39674L68.3659 11.8572L44.1562 15.8805L72.6545 16.089L68.8352 9.15712L47.9838 9.39674Z" fill="#FFA428"/>
<path d="M44.1651 16.2835L68.4156 18.4014L58.4054 38.5278L72.6545 16.2842L44.1651 16.2835Z" fill="#FFA428"/>
<path d="M68.8352 9.15717L79.8018 7.67431L84.1807 9.15717L79.2632 4.57828L68.8352 9.15717Z" fill="#FFA428"/>
<path d="M73.3938 16.2842L77.3863 16.2835L61.6136 35.3294L84.3507 10.4321L73.3938 16.2842Z" fill="#FFA22B"/>
<path d="M47.9838 0L70.3377 3.34391L68.8352 9.15715L79.2631 4.57826L68.8396 0H47.9838Z" fill="#FFA428"/>
<path d="M65.1349 5.07021L65.2744 5.44775L65.6525 5.58695L65.2744 5.72679L65.1349 6.10433L64.9949 5.72679L64.6167 5.58695L64.9949 5.44775L65.1349 5.07021Z" fill="white"/>
<path d="M67.9191 3.88609L68.0585 4.26364L68.4367 4.40284L68.0585 4.54267L67.9191 4.92022L67.779 4.54267L67.4009 4.40284L67.779 4.26364L67.9191 3.88609Z" fill="white"/>
<path d="M67.9191 5.58696L68.0585 5.96451L68.4367 6.10434L68.0585 6.24417L67.9191 6.62109L67.779 6.24417L67.4009 6.10434L67.779 5.96451L67.9191 5.58696Z" fill="white"/>
<path d="M77.4977 11.2413L77.6378 11.6188L78.016 11.7587L77.6378 11.8979L77.4977 12.2754L77.3583 11.8979L76.9801 11.7587L77.3583 11.6188L77.4977 11.2413Z" fill="white"/>
<path d="M76.1957 10.2923L76.2332 10.394L76.3351 10.4322L76.2332 10.4697L76.1957 10.5714L76.1575 10.4697L76.0556 10.4322L76.1575 10.394L76.1957 10.2923Z" fill="white"/>
<path opacity="0.8" d="M34.225 11.1618L36.6564 8.13379L34.5567 11.2101L34.225 11.3283" fill="white"/>
<path opacity="0.8" d="M35.0372 11.5915L37.4687 8.56351L35.3689 11.6398L35.0372 11.7587" fill="white"/>
<path opacity="0.8" d="M47.9838 0.244034L41.0104 4.37737L47.9838 8.8552L38.0531 4.54962L47.9838 0.244034Z" fill="white"/>
<path opacity="0.8" d="M37.6833 4.92468L32.8497 10.1608L31.9699 9.69807L37.6833 4.92468Z" fill="white"/>
<path opacity="0.8" d="M44.4866 16.5975L57.3911 36.9369L45.2729 16.3802L44.4866 16.5975Z" fill="white"/>
<path opacity="0.8" d="M48.9134 16.0077L53.1523 11.1618L50.0301 16.2835L48.9134 16.0077Z" fill="white"/>
<path opacity="0.8" d="M51.0329 16.4011L55.2718 11.5553L52.1502 16.677L51.0329 16.4011Z" fill="white"/>
<path d="M48.2213 9.42535L45.052 16.089L44.1562 15.8805L48.2213 9.42535Z" fill="white"/>
<path d="M69.2204 9.15712L73.2295 16.0077L74.0495 15.4166L69.2204 9.15712Z" fill="white"/>
<path d="M73.1307 16.3802H73.9196L61.9917 34.4434L73.1307 16.3802Z" fill="white"/>
</g>
<defs>
<filter id="filter0_d_7_361" x="-9.53674e-07" y="0" width="121.253" height="61.4361" filterUnits="userSpaceOnUse" color-interpolation-filters="sRGB">
<feFlood flood-opacity="0" result="BackgroundImageFix"/>
<feColorMatrix in="SourceAlpha" type="matrix" values="0 0 0 0 0 0 0 0 0 0 0 0 0 0 0 0 0 0 127 0" result="hardAlpha"/>
<feOffset dy="4"/>
<feGaussianBlur stdDeviation="2"/>
<feComposite in2="hardAlpha" operator="out"/>
<feColorMatrix type="matrix" values="0 0 0 0 0 0 0 0 0 0 0 0 0 0 0 0 0 0 0.25 0"/>
<feBlend mode="normal" in2="BackgroundImageFix" result="effect1_dropShadow_7_361"/>
<feBlend mode="normal" in="SourceGraphic" in2="effect1_dropShadow_7_361" result="shape"/>
</filter>
</defs>
</svg>
